<svg xmlns="http://www.w3.org/2000/svg" width="154.1" height="41.946" viewBox="0 0 154.1 41.946">
  <g id="Grupo_339" data-name="Grupo 339" transform="translate(-626.241 -386.211)">
    <path id="Caminho_260" data-name="Caminho 260" d="M913.3,452V424.81l8.036,6.461V452Z" transform="translate(-224.069 -30.129)" fill="#fff"/>
    <path id="Caminho_261" data-name="Caminho 261" d="M913.3,386.211h8.036v6.461Z" transform="translate(-224.069)" fill="#0046f5"/>
    <path id="Caminho_262" data-name="Caminho 262" d="M1025.02,452.64a20.987,20.987,0,0,1-6.63-1.08,15.12,15.12,0,0,1-5.525-3.139l2.863-4.922a23.8,23.8,0,0,0,4.7,2.562,11.932,11.932,0,0,0,4.395.9,4.426,4.426,0,0,0,2.411-.553,1.8,1.8,0,0,0,.854-1.607,1.893,1.893,0,0,0-1.08-1.683,16.652,16.652,0,0,0-3.792-1.331q-2.663-.753-4.5-1.457a12.632,12.632,0,0,1-2.988-1.557,5.042,5.042,0,0,1-1.657-1.959,6.26,6.26,0,0,1-.5-2.612,8.21,8.21,0,0,1,3.014-6.479,10.484,10.484,0,0,1,3.34-1.808,13.037,13.037,0,0,1,4.194-.653,18.635,18.635,0,0,1,5.55.8,13.882,13.882,0,0,1,5,2.913l-3.114,4.822a21.306,21.306,0,0,0-4.018-2.26,9.181,9.181,0,0,0-3.415-.7,4.315,4.315,0,0,0-2.21.528,1.952,1.952,0,0,0,.075,3.34,16.2,16.2,0,0,0,3.641,1.205,46.37,46.37,0,0,1,4.746,1.507,12.709,12.709,0,0,1,3.139,1.683,5.71,5.71,0,0,1,1.758,2.134,6.826,6.826,0,0,1,.552,2.863,7.534,7.534,0,0,1-2.913,6.228A12.347,12.347,0,0,1,1025.02,452.64Z" transform="translate(-301.786 -30.486)" fill="#fff"/>
    <path id="Caminho_263" data-name="Caminho 263" d="M1187.936,452.64a15.584,15.584,0,0,1-5.952-1.08,13.223,13.223,0,0,1-4.47-2.938,12.566,12.566,0,0,1-2.788-4.295,13.846,13.846,0,0,1-.954-5.1,15.207,15.207,0,0,1,.954-5.4,13.1,13.1,0,0,1,2.763-4.445,12.906,12.906,0,0,1,4.445-3.014,15.42,15.42,0,0,1,6-1.1,15.238,15.238,0,0,1,5.977,1.1,13.147,13.147,0,0,1,4.42,2.988,12.688,12.688,0,0,1,2.737,4.345,14.533,14.533,0,0,1,.929,5.173q0,.7-.05,1.381a9.867,9.867,0,0,1-.151,1.18h-19.488a5.415,5.415,0,0,0,1.933,4.043,6.15,6.15,0,0,0,3.943,1.381,7.216,7.216,0,0,0,3.39-.854,4.361,4.361,0,0,0,2.185-2.31l6.831,1.908a12.292,12.292,0,0,1-4.822,5.073A14.956,14.956,0,0,1,1187.936,452.64Zm5.575-16.173a6.045,6.045,0,0,0-1.808-3.968,5.446,5.446,0,0,0-3.867-1.457,5.37,5.37,0,0,0-3.892,1.482,6.145,6.145,0,0,0-1.783,3.943Z" transform="translate(-427.385 -30.486)" fill="#fff"/>
    <path id="Caminho_264" data-name="Caminho 264" d="M668.012,386.34l-9.091,22.643-3.141-7.823-4.33-10.784h0l-1.62-4.035h-8.578l-.07.028,5.938,14.791-3.141,7.823-9.091-22.643h-8.578l-.07.028,14.295,35.6h6.889l4.026-10.028,4.026,10.028h6.889l14.295-35.6-.07-.028Z" transform="translate(0 -0.1)" fill="#fff"/>
    <circle id="Elipse_45" data-name="Elipse 45" cx="1.211" cy="1.211" r="1.211" transform="translate(777.92 422.155)" fill="#0046f5"/>
    <rect id="Retângulo_160" data-name="Retângulo 160" width="28.227" height="0.501" transform="translate(746.387 427.656)" fill="#0046f5"/>
  </g>
</svg>
